<svg xmlns="http://www.w3.org/2000/svg" viewBox="0 0 1200 1000" preserveAspectRatio="xMidYMid slice" role="img" aria-label="Longevity Suite placeholder">
<defs>
<linearGradient id="bg" x1="0" y1="0" x2="1" y2="1"><stop offset="0" stop-color="#341c1a"/><stop offset="1" stop-color="#7a3b35"/></linearGradient>
<radialGradient id="glow" cx="0.5" cy="0.58" r="0.55"><stop offset="0" stop-color="#ff7a66" stop-opacity="0.42"/><stop offset="1" stop-color="#ff7a66" stop-opacity="0"/></radialGradient>
<pattern id="grid" width="60" height="60" patternUnits="userSpaceOnUse"><path d="M60 0H0V60" fill="none" stroke="#f6dcd3" stroke-opacity="0.05"/></pattern>
</defs>
<rect width="1200" height="1000" fill="url(#bg)"/>
<rect width="1200" height="1000" fill="url(#grid)"/>
<rect width="1200" height="1000" fill="url(#glow)"/>
<path d="M300 770V330a300 300 0 0 1 600 0v440" fill="none" stroke="#f6dcd3" stroke-opacity="0.14" stroke-width="2"/>
<path d="M0 770H1200" stroke="#f6dcd3" stroke-opacity="0.22" stroke-width="2"/>
<ellipse cx="600" cy="790" rx="430" ry="34" fill="#000" fill-opacity="0.18"/>
<g fill="none" stroke="#f6dcd3" stroke-width="4" stroke-linecap="round" stroke-linejoin="round">
<rect x="210" y="620" width="780" height="110" rx="34" fill="#f6dcd3" fill-opacity="0.08"/>
<path d="M230 610C330 380 870 380 970 610"/>
<path d="M270 610C370 430 830 430 930 610" stroke-opacity="0.45"/>
<g stroke="#ff7a66" stroke-opacity="0.75" stroke-width="3"><path d="M420 530V600M510 500V600M600 490V600M690 500V600M780 530V600"/></g>
<path d="M270 730V770M930 730V770"/></g>
<text x="60" y="930" font-family="Georgia, 'Times New Roman', serif" font-size="34" fill="#f6dcd3" fill-opacity="0.8" letter-spacing="4">Longevity Suite</text>
<text x="1140" y="930" text-anchor="end" font-family="Arial, Helvetica, sans-serif" font-size="16" fill="#f6dcd3" fill-opacity="0.45" letter-spacing="5">PLACEHOLDER IMAGE</text>
</svg>
