<svg xmlns="http://www.w3.org/2000/svg" viewBox="0 0 1200 1000" preserveAspectRatio="xMidYMid slice" role="img" aria-label="Gyms, Spas &amp; Hotels placeholder">
<defs>
<linearGradient id="bg" x1="0" y1="0" x2="1" y2="1"><stop offset="0" stop-color="#133E2F"/><stop offset="1" stop-color="#4F5A34"/></linearGradient>
<radialGradient id="glow" cx="0.5" cy="0.58" r="0.55"><stop offset="0" stop-color="#e7c98f" stop-opacity="0.42"/><stop offset="1" stop-color="#e7c98f" stop-opacity="0"/></radialGradient>
<pattern id="grid" width="60" height="60" patternUnits="userSpaceOnUse"><path d="M60 0H0V60" fill="none" stroke="#f5ead6" stroke-opacity="0.05"/></pattern>
</defs>
<rect width="1200" height="1000" fill="url(#bg)"/>
<rect width="1200" height="1000" fill="url(#grid)"/>
<rect width="1200" height="1000" fill="url(#glow)"/>
<path d="M300 770V330a300 300 0 0 1 600 0v440" fill="none" stroke="#f5ead6" stroke-opacity="0.14" stroke-width="2"/>
<path d="M0 770H1200" stroke="#f5ead6" stroke-opacity="0.22" stroke-width="2"/>
<ellipse cx="600" cy="790" rx="430" ry="34" fill="#0A2A1F" fill-opacity="0.18"/>
<g fill="none" stroke="#f5ead6" stroke-width="4" stroke-linecap="round" stroke-linejoin="round"><circle cx="600" cy="360" r="55"/><path d="M600 270V245M600 475V450M510 360H485M715 360H690M536 296L518 278M682 442L664 424M536 424L518 442M682 278L664 296"/><g transform="translate(180 250) scale(0.7)">
<path d="M230 540H970L930 765H270Z" fill="#f5ead6" fill-opacity="0.08"/>
<path d="M270 600q40-18 80 0t80 0t80 0t80 0t80 0t80 0t80 0t80 0t80 0"/>
<path d="M300 660q40-18 80 0t80 0t80 0t80 0t80 0t80 0t80 0" stroke-opacity="0.45"/>
<path d="M230 540V460H280"/>
<rect x="1000" y="600" width="130" height="165" rx="12" fill="#f5ead6" fill-opacity="0.08"/><path d="M1030 640H1100M1030 680H1080M1000 700H948"/></g></g>
<text x="60" y="930" font-family="Georgia, 'Times New Roman', serif" font-size="34" fill="#f5ead6" fill-opacity="0.8" letter-spacing="4">Gyms, Spas &amp; Hotels</text>
<text x="1140" y="930" text-anchor="end" font-family="Arial, Helvetica, sans-serif" font-size="16" fill="#f5ead6" fill-opacity="0.45" letter-spacing="5">PLACEHOLDER IMAGE</text>
</svg>
